<svg xmlns="http://www.w3.org/2000/svg" width="2400" height="2160" viewBox="0 0 2400 2160" role="img" aria-labelledby="title desc">
<title id="title">TalonMart Agent · 当前项目整体架构</title><desc id="desc">用户购物与企业运营双入口，共享确定性业务事实；知识检索与文件采集各有清晰边界。</desc>
<defs><filter id="shadow" x="-10%" y="-10%" width="120%" height="125%"><feDropShadow dx="0" dy="5" stdDeviation="9" flood-color="#172A46" flood-opacity=".055"/></filter>
<marker id="arrow-blue" viewBox="0 0 12 12" refX="10" refY="6" markerWidth="9" markerHeight="9" orient="auto-start-reverse"><path d="M 1 1 L 10 6 L 1 11 Z" fill="#315CDD"/></marker>
<marker id="arrow-teal" viewBox="0 0 12 12" refX="10" refY="6" markerWidth="9" markerHeight="9" orient="auto-start-reverse"><path d="M 1 1 L 10 6 L 1 11 Z" fill="#087F79"/></marker>
<marker id="arrow-orange" viewBox="0 0 12 12" refX="10" refY="6" markerWidth="9" markerHeight="9" orient="auto-start-reverse"><path d="M 1 1 L 10 6 L 1 11 Z" fill="#B76817"/></marker>
<marker id="arrow-purple" viewBox="0 0 12 12" refX="10" refY="6" markerWidth="9" markerHeight="9" orient="auto-start-reverse"><path d="M 1 1 L 10 6 L 1 11 Z" fill="#7452B7"/></marker>
<marker id="arrow-muted" viewBox="0 0 12 12" refX="10" refY="6" markerWidth="9" markerHeight="9" orient="auto-start-reverse"><path d="M 1 1 L 10 6 L 1 11 Z" fill="#52647B"/></marker>
</defs><style>text{font-family:"Microsoft YaHei","PingFang SC","Noto Sans CJK SC",Arial,sans-serif}path{stroke-linejoin:round;stroke-linecap:round}</style>
<rect x="0" y="0" width="2400" height="2160" fill="#F6F8FC" rx="0"/>
<rect x="64" y="56" width="7" height="100" fill="#315CDD" rx="3"/>
<text x="92" y="70" font-size="18" fill="#315CDD" font-weight="700" text-anchor="start" letter-spacing="2">TALONMART  /  ARCHITECTURE ATLAS</text>
<text x="92" y="126" font-size="43" fill="#16243B" font-weight="700" text-anchor="start">TalonMart Agent · 当前项目整体架构</text>
<text x="92" y="166" font-size="22" fill="#52647B" font-weight="400" text-anchor="start">用户购物与企业运营双入口，共享确定性业务事实；知识检索与文件采集各有清晰边界。</text>
<text x="2336" y="87" font-size="24" fill="#52647B" font-weight="600" text-anchor="end">01  /  03</text>
<text x="2336" y="126" font-size="22" fill="#52647B" font-weight="400" text-anchor="end">2026.09.23</text>
<path d="M344 366 V470" fill="none" stroke="#315CDD" stroke-width="3" marker-end="url(#arrow-blue)" marker-start="url(#arrow-blue)"/>
<path d="M1000 366 V412 H1120 V1216 H1184" fill="none" stroke="#315CDD" stroke-width="3" marker-end="url(#arrow-blue)"/>
<path d="M1064 818 H1120" fill="none" stroke="#315CDD" stroke-width="3"/>
<path d="M1556 366 V470" fill="none" stroke="#B76817" stroke-width="3" marker-end="url(#arrow-orange)" marker-start="url(#arrow-orange)"/>
<path d="M1556 920 V1024" fill="none" stroke="#B76817" stroke-width="3" marker-end="url(#arrow-orange)"/>
<path d="M344 920 V1024" fill="none" stroke="#087F79" stroke-width="3" marker-end="url(#arrow-teal)" marker-start="url(#arrow-teal)"/>
<path d="M564 1408 V1512" fill="none" stroke="#7452B7" stroke-width="3" marker-end="url(#arrow-purple)" marker-start="url(#arrow-purple)"/>
<path d="M1556 1408 V1512" fill="none" stroke="#7452B7" stroke-width="3" marker-end="url(#arrow-purple)" marker-start="url(#arrow-purple)"/>
<path d="M1928 1268 H1968 V1604 H2008" fill="none" stroke="#7452B7" stroke-width="3" marker-end="url(#arrow-purple)" marker-start="url(#arrow-purple)"/>
<rect x="64" y="220" width="1000" height="146" fill="white" rx="18" stroke="#DDE5F0" stroke-width="1.5" filter="url(#shadow)"/>
<rect x="64" y="246" width="5" height="43" fill="#315CDD" rx="2"/>
<text x="92" y="270" font-size="29" fill="#16243B" font-weight="700" text-anchor="start">TalonMart Web</text>
<text x="92" y="304" font-size="20" fill="#52647B" font-weight="400" text-anchor="start">Vue 3 · TypeScript · Vite · Pinia</text>
<rect x="940" y="242" width="100" height="34" fill="#EEF3FF" rx="17"/>
<text x="990.0" y="266" font-size="18" fill="#315CDD" font-weight="600" text-anchor="middle">购物入口</text>
<text x="92" y="338" font-size="23" fill="#52647B" font-weight="400" text-anchor="start">商品浏览 / 搜索 / 详情 / 购物车 / 订单 / 秒杀 / AI 模式</text>
<rect x="1184" y="220" width="744" height="146" fill="white" rx="18" stroke="#DDE5F0" stroke-width="1.5" filter="url(#shadow)"/>
<rect x="1184" y="246" width="5" height="43" fill="#B76817" rx="2"/>
<text x="1212" y="270" font-size="29" fill="#16243B" font-weight="700" text-anchor="start">飞书机器人 · 应用 · 多维表格</text>
<text x="1212" y="304" font-size="20" fill="#52647B" font-weight="400" text-anchor="start">仓储 / 采购 / 物流 / 运营</text>
<rect x="1804" y="242" width="100" height="34" fill="#FFF5E7" rx="17"/>
<text x="1854.0" y="266" font-size="18" fill="#B76817" font-weight="600" text-anchor="middle">运营入口</text>
<text x="1212" y="338" font-size="23" fill="#52647B" font-weight="400" text-anchor="start">展示、协作、通知、人工确认与业务操作</text>
<rect x="276.0" y="400" width="136.0" height="34" fill="#F6F8FC" rx="6"/>
<text x="344" y="424" font-size="20" fill="#315CDD" font-weight="500" text-anchor="middle">HTTP / SSE</text>
<rect x="806.0" y="381" width="160.0" height="34" fill="#F6F8FC" rx="6"/>
<text x="886" y="405" font-size="20" fill="#315CDD" font-weight="500" text-anchor="middle">常规购物 HTTP</text>
<rect x="1430.4" y="400" width="251.2" height="34" fill="#F6F8FC" rx="6"/>
<text x="1556" y="424" font-size="20" fill="#B76817" font-weight="500" text-anchor="middle">事件 / 回复 / 表格同步</text>
<rect x="64" y="470" width="1000" height="450" fill="white" rx="18" stroke="#DDE5F0" stroke-width="1.5" filter="url(#shadow)"/>
<rect x="64" y="496" width="5" height="43" fill="#315CDD" rx="2"/>
<text x="92" y="520" font-size="29" fill="#16243B" font-weight="700" text-anchor="start">ai-service / AImodel</text>
<text x="92" y="554" font-size="20" fill="#52647B" font-weight="400" text-anchor="start">FastAPI · LangChain · LangGraph · MCP Client</text>
<rect x="904" y="492" width="136" height="34" fill="#EEF3FF" rx="17"/>
<text x="972.0" y="516" font-size="18" fill="#315CDD" font-weight="600" text-anchor="middle">购物决策核心</text>
<rect x="92" y="584" width="450" height="106" fill="#EEF3FF" rx="12"/>
<text x="112" y="620" font-size="23" fill="#16243B" font-weight="600" text-anchor="start">购物目标与对话状态</text>
<text x="112" y="654" font-size="20" fill="#52647B" font-weight="400" text-anchor="start">抽取 / 合并 / 冲突检测 / 最少澄清</text>
<rect x="582" y="584" width="454" height="106" fill="#EEF3FF" rx="12"/>
<text x="602" y="620" font-size="23" fill="#16243B" font-weight="600" text-anchor="start">意图路由与分层规划</text>
<text x="602" y="654" font-size="20" fill="#52647B" font-weight="400" text-anchor="start">Intent Router / Plan / 步骤级工具授权</text>
<path d="M542 637 H582" fill="none" stroke="#315CDD" stroke-width="3" marker-end="url(#arrow-blue)"/>
<rect x="92" y="716" width="450" height="106" fill="#EEF3FF" rx="12"/>
<text x="112" y="752" font-size="23" fill="#16243B" font-weight="600" text-anchor="start">商品决策与证据</text>
<text x="112" y="786" font-size="20" fill="#52647B" font-weight="400" text-anchor="start">硬过滤 / 确定性排序 / 比较 / 评论</text>
<rect x="582" y="716" width="454" height="106" fill="#EEF3FF" rx="12"/>
<text x="602" y="752" font-size="23" fill="#16243B" font-weight="600" text-anchor="start">有界执行与事实校验</text>
<text x="602" y="786" font-size="20" fill="#52647B" font-weight="400" text-anchor="start">工具并发 / 超时 / 恢复 / 结构化回答</text>
<text x="92" y="871" font-size="21" fill="#52647B" font-weight="400" text-anchor="start">会话与长期记忆 · Checkpoint · Agent Trace · 保留既有 LangChain 路径</text>
<rect x="1060.0" y="766" width="96" height="32" fill="#F6F8FC" rx="6"/>
<text x="1108" y="788" font-size="18" fill="#315CDD" font-weight="500" text-anchor="middle">业务工具</text>
<rect x="1184" y="470" width="744" height="450" fill="white" rx="18" stroke="#DDE5F0" stroke-width="1.5" filter="url(#shadow)"/>
<rect x="1184" y="496" width="5" height="43" fill="#B76817" rx="2"/>
<text x="1212" y="520" font-size="29" fill="#16243B" font-weight="700" text-anchor="start">飞书适配与业务编排</text>
<text x="1212" y="554" font-size="20" fill="#52647B" font-weight="400" text-anchor="start">FastAPI adapter + n8n workflows</text>
<rect x="1212" y="584" width="688" height="100" fill="#FFF5E7" rx="12"/>
<text x="1232" y="620" font-size="23" fill="#16243B" font-weight="600" text-anchor="start">feishu-adapter</text>
<text x="1232" y="654" font-size="20" fill="#52647B" font-weight="400" text-anchor="start">事件接入 / 多机器人 / 去重 / 回复 / read model 同步</text>
<path d="M1556 684 V734" fill="none" stroke="#B76817" stroke-width="3" marker-end="url(#arrow-orange)" marker-start="url(#arrow-orange)"/>
<rect x="1613.6" y="696" width="196.8" height="32" fill="white" rx="6"/>
<text x="1712" y="718" font-size="18" fill="#B76817" font-weight="500" text-anchor="middle">Webhook / 同步接口</text>
<rect x="1212" y="734" width="688" height="128" fill="#FFF5E7" rx="12"/>
<text x="1232" y="770" font-size="23" fill="#16243B" font-weight="600" text-anchor="start">n8n 部门 Workflow</text>
<text x="1232" y="804" font-size="20" fill="#52647B" font-weight="400" text-anchor="start">Warehouse · Procurement · Delivery · Operations</text>
<text x="1232" y="835" font-size="20" fill="#52647B" font-weight="400" text-anchor="start">调用业务 API；按流程调用 ai-service 意图与摘要能力</text>
<text x="1212" y="894" font-size="20" fill="#52647B" font-weight="400" text-anchor="start">业务按钮 → 确定性 API；表格展示数据由源端同步</text>
<rect x="1430.4" y="959" width="251.2" height="34" fill="#F6F8FC" rx="6"/>
<text x="1556" y="983" font-size="20" fill="#B76817" font-weight="500" text-anchor="middle">查询 / 操作 / 定时同步</text>
<rect x="209.20000000000002" y="959" width="269.59999999999997" height="34" fill="#F6F8FC" rx="6"/>
<text x="344" y="983" font-size="20" fill="#087F79" font-weight="500" text-anchor="middle">持久 MCP · stdio 子进程</text>
<rect x="64" y="1024" width="1000" height="384" fill="white" rx="18" stroke="#DDE5F0" stroke-width="1.5" filter="url(#shadow)"/>
<rect x="64" y="1050" width="5" height="43" fill="#087F79" rx="2"/>
<text x="92" y="1074" font-size="29" fill="#16243B" font-weight="700" text-anchor="start">独立 RAG 知识子系统</text>
<text x="92" y="1108" font-size="20" fill="#52647B" font-weight="400" text-anchor="start">services/ai-service/rag · 通过 MCP 公共契约调用</text>
<rect x="940" y="1046" width="100" height="34" fill="#EAF7F4" rx="17"/>
<text x="990.0" y="1070" font-size="18" fill="#087F79" font-weight="600" text-anchor="middle">知识证据</text>
<rect x="92" y="1140" width="450" height="100" fill="#EAF7F4" rx="12"/>
<text x="112" y="1176" font-size="23" fill="#16243B" font-weight="600" text-anchor="start">文档摄取</text>
<text x="112" y="1210" font-size="20" fill="#52647B" font-weight="400" text-anchor="start">Markdown / PDF → 分块 / Transform</text>
<rect x="582" y="1140" width="454" height="100" fill="#EAF7F4" rx="12"/>
<text x="602" y="1176" font-size="23" fill="#16243B" font-weight="600" text-anchor="start">混合召回</text>
<text x="602" y="1210" font-size="20" fill="#52647B" font-weight="400" text-anchor="start">Dense + BM25 → RRF · 多库并行</text>
<rect x="92" y="1260" width="450" height="100" fill="#EAF7F4" rx="12"/>
<text x="112" y="1296" font-size="23" fill="#16243B" font-weight="600" text-anchor="start">索引与检索资产</text>
<text x="112" y="1330" font-size="20" fill="#52647B" font-weight="400" text-anchor="start">Embedding / pgvector / 本地 BM25</text>
<rect x="582" y="1260" width="454" height="100" fill="#EAF7F4" rx="12"/>
<text x="602" y="1296" font-size="23" fill="#16243B" font-weight="600" text-anchor="start">重排与证据筛选</text>
<text x="602" y="1330" font-size="20" fill="#52647B" font-weight="400" text-anchor="start">Reranker → Self-RAG → 引用 / Trace</text>
<text x="92" y="1390" font-size="20" fill="#52647B" font-weight="400" text-anchor="start">选购指南 / FAQ / 政策 / 品牌知识；商品实时事实走业务 API</text>
<rect x="1184" y="1024" width="744" height="384" fill="white" rx="18" stroke="#DDE5F0" stroke-width="1.5" filter="url(#shadow)"/>
<rect x="1184" y="1050" width="5" height="43" fill="#B76817" rx="2"/>
<text x="1212" y="1074" font-size="29" fill="#16243B" font-weight="700" text-anchor="start">mock-api · 确定性业务 API</text>
<text x="1212" y="1108" font-size="20" fill="#52647B" font-weight="400" text-anchor="start">FastAPI · SQLAlchemy · psycopg</text>
<rect x="1804" y="1046" width="100" height="34" fill="#FFF5E7" rx="17"/>
<text x="1854.0" y="1070" font-size="18" fill="#B76817" font-weight="600" text-anchor="middle">业务事实</text>
<rect x="1212" y="1140" width="326" height="100" fill="#FFF5E7" rx="12"/>
<text x="1232" y="1176" font-size="23" fill="#16243B" font-weight="600" text-anchor="start">电商交易</text>
<text x="1232" y="1210" font-size="20" fill="#52647B" font-weight="400" text-anchor="start">商品 / 评论 / 购物车 / 订单</text>
<rect x="1560" y="1140" width="340" height="100" fill="#FFF5E7" rx="12"/>
<text x="1580" y="1176" font-size="23" fill="#16243B" font-weight="600" text-anchor="start">运营履约</text>
<text x="1580" y="1210" font-size="20" fill="#52647B" font-weight="400" text-anchor="start">库存 / 采购 / 物流 / 售后</text>
<rect x="1212" y="1260" width="688" height="100" fill="#FFF5E7" rx="12"/>
<text x="1232" y="1296" font-size="23" fill="#16243B" font-weight="600" text-anchor="start">秒杀 · 排行榜 · fixtures 演示数据</text>
<text x="1232" y="1330" font-size="20" fill="#52647B" font-weight="400" text-anchor="start">状态变更经确定性接口校验；事实持久化到 PostgreSQL</text>
<text x="1212" y="1390" font-size="20" fill="#52647B" font-weight="400" text-anchor="start">飞书多维表格是业务数据投影，最终事实源在此边界内</text>
<rect x="2008" y="220" width="328" height="328" fill="white" rx="18" stroke="#DDE5F0" stroke-width="1.5" filter="url(#shadow)"/>
<rect x="2008" y="246" width="5" height="43" fill="#315CDD" rx="2"/>
<text x="2036" y="270" font-size="29" fill="#16243B" font-weight="700" text-anchor="start">模型与外部检索</text>
<text x="2036" y="304" font-size="20" fill="#52647B" font-weight="400" text-anchor="start">受控依赖 / 按配置启用</text>
<text x="2036" y="346" font-size="23" fill="#52647B" font-weight="400" text-anchor="start">LLM / Embedding</text>
<text x="2036" y="391" font-size="23" fill="#52647B" font-weight="400" text-anchor="start">Reranker providers</text>
<text x="2036" y="436" font-size="23" fill="#52647B" font-weight="400" text-anchor="start">Tavily Web Search</text>
<text x="2036" y="495" font-size="20" fill="#52647B" font-weight="400" text-anchor="start">供 Agent / RAG 调用</text>
<text x="2036" y="525" font-size="20" fill="#52647B" font-weight="400" text-anchor="start">补充公开网页与模型能力</text>
<rect x="2008" y="612" width="328" height="308" fill="white" rx="18" stroke="#DDE5F0" stroke-width="1.5" filter="url(#shadow)"/>
<rect x="2008" y="638" width="5" height="43" fill="#087F79" rx="2"/>
<text x="2036" y="662" font-size="29" fill="#16243B" font-weight="700" text-anchor="start">观测与评估</text>
<text x="2036" y="696" font-size="20" fill="#52647B" font-weight="400" text-anchor="start">贯穿 Agent 与 RAG</text>
<text x="2036" y="742" font-size="21" fill="#52647B" font-weight="400" text-anchor="start">Agent / RAG Trace</text>
<text x="2036" y="782" font-size="21" fill="#52647B" font-weight="400" text-anchor="start">Golden Set / Ragas</text>
<text x="2036" y="822" font-size="21" fill="#52647B" font-weight="400" text-anchor="start">Streamlit Dashboard</text>
<text x="2036" y="862" font-size="21" fill="#52647B" font-weight="400" text-anchor="start">Kayn / OTel 评测适配</text>
<rect x="2008" y="1024" width="328" height="384" fill="white" rx="18" stroke="#DDE5F0" stroke-width="1.5" filter="url(#shadow)"/>
<rect x="2008" y="1050" width="5" height="43" fill="#7452B7" rx="2"/>
<text x="2036" y="1074" font-size="29" fill="#16243B" font-weight="700" text-anchor="start">运行与边界</text>
<text x="2036" y="1108" font-size="20" fill="#52647B" font-weight="400" text-anchor="start">Docker Compose · 本地优先</text>
<text x="2036" y="1150" font-size="20" fill="#52647B" font-weight="400" text-anchor="start">6 个基础服务容器</text>
<text x="2036" y="1193" font-size="20" fill="#52647B" font-weight="400" text-anchor="start">前端由 Vite 单独启动</text>
<text x="2036" y="1236" font-size="20" fill="#52647B" font-weight="400" text-anchor="start">RAG MCP 随 AI 进程启动</text>
<text x="2036" y="1279" font-size="20" fill="#52647B" font-weight="400" text-anchor="start">采集与清洗在宿主机运行</text>
<rect x="2032" y="1325" width="280" height="54" fill="#F3EFFB" rx="10"/>
<text x="2172" y="1360" font-size="20" fill="#7452B7" font-weight="600" text-anchor="middle">独立模块 ≠ 独立容器</text>
<rect x="438.4" y="1448" width="251.2" height="34" fill="#F6F8FC" rx="6"/>
<text x="564" y="1472" font-size="20" fill="#7452B7" font-weight="500" text-anchor="middle">向量 / 文档 / 运行数据</text>
<rect x="1484.0" y="1448" width="144" height="34" fill="#F6F8FC" rx="6"/>
<text x="1556" y="1472" font-size="20" fill="#7452B7" font-weight="500" text-anchor="middle">业务事实读写</text>
<rect x="64" y="1512" width="1864" height="184" fill="white" rx="18" stroke="#DDE5F0" stroke-width="1.5" filter="url(#shadow)"/>
<rect x="64" y="1538" width="5" height="43" fill="#7452B7" rx="2"/>
<text x="92" y="1562" font-size="29" fill="#16243B" font-weight="700" text-anchor="start">PostgreSQL · 持久化底座</text>
<text x="92" y="1596" font-size="20" fill="#52647B" font-weight="400" text-anchor="start">共享实例，按业务、Agent 与 RAG 的逻辑所有权分区；含 pgvector / pg_search 扩展。</text>
<text x="92" y="1642" font-size="22" fill="#16243B" font-weight="600" text-anchor="start">业务数据</text>
<text x="92" y="1674" font-size="20" fill="#52647B" font-weight="400" text-anchor="start">商品 / 订单 / 库存 / 采购 / 秒杀</text>
<text x="690" y="1642" font-size="22" fill="#16243B" font-weight="600" text-anchor="start">Agent 状态与追踪</text>
<text x="690" y="1674" font-size="20" fill="#52647B" font-weight="400" text-anchor="start">会话 / 目标 / 记忆 / Checkpoint / Trace</text>
<text x="1350" y="1642" font-size="22" fill="#16243B" font-weight="600" text-anchor="start">RAG 子系统数据</text>
<text x="1350" y="1674" font-size="20" fill="#52647B" font-weight="400" text-anchor="start">文档 / Chunk / 向量 / 评估 / Trace</text>
<rect x="2008" y="1512" width="328" height="184" fill="white" rx="18" stroke="#DDE5F0" stroke-width="1.5" filter="url(#shadow)"/>
<rect x="2008" y="1538" width="5" height="43" fill="#7452B7" rx="2"/>
<text x="2036" y="1562" font-size="29" fill="#16243B" font-weight="700" text-anchor="start">Redis</text>
<text x="2036" y="1596" font-size="20" fill="#52647B" font-weight="400" text-anchor="start">原子计数与缓存</text>
<text x="2036" y="1642" font-size="21" fill="#52647B" font-weight="400" text-anchor="start">秒杀配额 / 扣减补偿</text>
<text x="2036" y="1674" font-size="21" fill="#52647B" font-weight="400" text-anchor="start">排行榜缓存</text>
<text x="64" y="1762" font-size="28" fill="#16243B" font-weight="700" text-anchor="start">独立文件流水线</text>
<text x="334" y="1762" font-size="22" fill="#52647B" font-weight="400" text-anchor="start">RPA / data-ops · CSV 契约连接采集与处理，当前交付止于文件</text>
<rect x="64" y="1804" width="486" height="146" fill="#EAF7F4" rx="12"/>
<text x="84" y="1840" font-size="23" fill="#16243B" font-weight="600" text-anchor="start">01  授权网页 → URL 发现</text>
<text x="84" y="1874" font-size="20" fill="#52647B" font-weight="400" text-anchor="start">Playwright 分类 / 搜索页发现</text>
<text x="84" y="1905" font-size="20" fill="#52647B" font-weight="400" text-anchor="start">SKU 规范化 / 去重 → 输入 CSV</text>
<rect x="626" y="1804" width="486" height="146" fill="#EAF7F4" rx="12"/>
<text x="646" y="1840" font-size="23" fill="#16243B" font-weight="600" text-anchor="start">02  商品详情采集</text>
<text x="646" y="1874" font-size="20" fill="#52647B" font-weight="400" text-anchor="start">影刀 RPA → 统一原始 CSV</text>
<text x="646" y="1905" font-size="20" fill="#52647B" font-weight="400" text-anchor="start">可替换采集器 / 统一 CSV 数据契约</text>
<rect x="1188" y="1804" width="486" height="146" fill="#EAF7F4" rx="12"/>
<text x="1208" y="1840" font-size="23" fill="#16243B" font-weight="600" text-anchor="start">03  pandas / data-ops</text>
<text x="1208" y="1874" font-size="20" fill="#52647B" font-weight="400" text-anchor="start">契约校验 / 字段清洗 / 价格规范化</text>
<text x="1208" y="1905" font-size="20" fill="#52647B" font-weight="400" text-anchor="start">processor 注册 / 批次管理 / 断点续跑</text>
<rect x="1750" y="1804" width="586" height="146" fill="#EAF7F4" rx="12"/>
<text x="1770" y="1840" font-size="23" fill="#16243B" font-weight="600" text-anchor="start">04  文件交付</text>
<text x="1770" y="1874" font-size="20" fill="#52647B" font-weight="400" text-anchor="start">标准化 CSV / 失败 CSV</text>
<text x="1770" y="1905" font-size="20" fill="#52647B" font-weight="400" text-anchor="start">manifest / pipeline result / 异常证据</text>
<path d="M550 1877 H626" fill="none" stroke="#087F79" stroke-width="3" marker-end="url(#arrow-teal)"/>
<path d="M1112 1877 H1188" fill="none" stroke="#087F79" stroke-width="3" marker-end="url(#arrow-teal)"/>
<path d="M1674 1877 H1750" fill="none" stroke="#087F79" stroke-width="3" marker-end="url(#arrow-teal)"/>
<text x="64" y="1995" font-size="23" fill="#16243B" font-weight="500" text-anchor="start">事实边界：Agent 调工具获得业务事实；RAG 提供引用知识；飞书维护 read model；RPA 文件入库需后续独立设计。</text>
<text x="64" y="2038" font-size="20" fill="#52647B" font-weight="400" text-anchor="start">阅读顺序：图 01 理解整体系统；图 02 理解 Agent 与 RAG 的完整协作；图 03 逐步拆解购物决策过程。</text>
<path d="M64 2074 H2336" fill="none" stroke="#52647B" stroke-width="1"/>
<text x="64" y="2114" font-size="19" fill="#52647B" font-weight="400" text-anchor="start">当前系统总览 · 主调用方向、业务事实来源与运行形态。</text>
<text x="2336" y="2114" font-size="17" fill="#52647B" font-weight="500" text-anchor="end">LOCAL-FIRST  ·  FACT-GROUNDED  ·  TRACEABLE</text>
</svg>